<?xml version="1.0" encoding="UTF-8"?>
<svg width="48" height="48" version="1.1" viewBox="0 0 48 48" xmlns="http://www.w3.org/2000/svg">
 <path d="m12 12c-2.2091 0-4 1.7909-4 4s1.7909 4 4 4 4-1.7909 4-4-1.7909-4-4-4zm12 0c-2.2091 0-4 1.7909-4 4s1.7909 4 4 4 4-1.7909 4-4-1.7909-4-4-4zm12 0c-2.2091 0-4 1.7909-4 4s1.7909 4 4 4 4-1.7909 4-4-1.7909-4-4-4zm-24 12c-4.4183 0-8 3.5817-8 8v4h16v-4c0-4.4183-3.5817-8-8-8zm12 0c-4.4183 0-8 3.5817-8 8v4h16v-4c0-4.4183-3.5817-8-8-8zm12 0c-4.4183 0-8 3.5817-8 8v4h16v-4c0-4.4183-3.5817-8-8-8z" fill="#4facfe"/>
</svg> 